<svg xmlns="http://www.w3.org/2000/svg" width="20.425" height="19.565" viewBox="0 0 20.425 19.565">
  <g id="Icon_feather-shopping-cart" data-name="Icon feather-shopping-cart" transform="translate(0.75 0.75)">
    <path id="Path_1" data-name="Path 1" d="M13.72,30.86a.86.86,0,1,1-.86-.86A.86.86,0,0,1,13.72,30.86Z" transform="translate(-5.978 -13.655)" fill="none" stroke="#006400" stroke-linecap="round" stroke-linejoin="round" stroke-width="1.5"/>
    <path id="Path_2" data-name="Path 2" d="M30.22,30.86a.86.86,0,1,1-.86-.86A.86.86,0,0,1,30.22,30.86Z" transform="translate(-13.016 -13.655)" fill="none" stroke="#006400" stroke-linecap="round" stroke-linejoin="round" stroke-width="1.5"/>
    <path id="Path_3" data-name="Path 3" d="M1.5,1.5H4.941L7.246,13.019A1.72,1.72,0,0,0,8.967,14.4h8.362a1.72,1.72,0,0,0,1.72-1.385L20.425,5.8H5.8" transform="translate(-1.5 -1.5)" fill="none" stroke="#006400" stroke-linecap="round" stroke-linejoin="round" stroke-width="1.5"/>
  </g>
</svg>
